<svg width="70" height="68" viewBox="0 0 70 68" fill="none" xmlns="http://www.w3.org/2000/svg">
<g clip-path="url(#clip0_2231_4)">
<rect width="70" height="68" fill="url(#paint0_linear_2231_4)"/>
<path d="M31.147 30.8203H26.4808C26.3956 30.2166 26.2216 29.6804 25.9588 29.2116C25.696 28.7358 25.3587 28.331 24.9467 27.9972C24.5348 27.6634 24.0589 27.4077 23.5192 27.2301C22.9865 27.0526 22.4077 26.9638 21.7827 26.9638C20.6534 26.9638 19.6697 27.2443 18.8317 27.8054C17.9936 28.3594 17.3438 29.169 16.8821 30.2344C16.4205 31.2926 16.1896 32.5781 16.1896 34.0909C16.1896 35.6463 16.4205 36.9531 16.8821 38.0114C17.3509 39.0696 18.0043 39.8686 18.8423 40.4084C19.6804 40.9482 20.6499 41.218 21.7507 41.218C22.3686 41.218 22.9403 41.1364 23.4659 40.973C23.9986 40.8097 24.4709 40.5717 24.8828 40.2592C25.2947 39.9396 25.6357 39.5526 25.9055 39.098C26.1825 38.6435 26.3743 38.125 26.4808 37.5426L31.147 37.5639C31.0263 38.5653 30.7244 39.5312 30.2415 40.4616C29.7656 41.3849 29.1229 42.2124 28.3132 42.9439C27.5107 43.6683 26.5518 44.2436 25.4368 44.6697C24.3288 45.0888 23.0753 45.2983 21.6761 45.2983C19.7301 45.2983 17.9901 44.858 16.456 43.9773C14.929 43.0966 13.7216 41.8217 12.8338 40.1527C11.9531 38.4837 11.5128 36.4631 11.5128 34.0909C11.5128 31.7116 11.9602 29.6875 12.8551 28.0185C13.75 26.3494 14.9645 25.0781 16.4986 24.2045C18.0327 23.3239 19.7585 22.8835 21.6761 22.8835C22.9403 22.8835 24.1122 23.0611 25.1918 23.4162C26.2784 23.7713 27.2408 24.2898 28.0788 24.9716C28.9169 25.6463 29.5987 26.4737 30.1243 27.4538C30.657 28.4339 30.9979 29.5561 31.147 30.8203ZM34.4549 23.1818H40.1438L46.1523 37.8409H46.408L52.4165 23.1818H58.1055V45H53.631V30.799H53.4499L47.8036 44.8935H44.7567L39.1104 30.7457H38.9293V45H34.4549V23.1818Z" fill="white"/>
</g>
<defs>
<linearGradient id="paint0_linear_2231_4" x1="70" y1="34" x2="0" y2="34" gradientUnits="userSpaceOnUse">
<stop stop-color="#2873D6"/>
<stop offset="1" stop-color="#92BDFF"/>
</linearGradient>
<clipPath id="clip0_2231_4">
<rect width="70" height="68" rx="10" fill="white"/>
</clipPath>
</defs>
</svg>
